HIERARCHY
ROOT Hips
{
	OFFSET 0.00000 0.00000 0.00000
	CHANNELS 6 Xposition Yposition Zposition Zrotation Yrotation Xrotation 
	JOINT LHipJoint
	{
		OFFSET 0 0 0
		CHANNELS 3 Zrotation Yrotation Xrotation
		JOINT LeftUpLeg
		{
			OFFSET 1.64549 -1.70879 0.84566
			CHANNELS 3 Zrotation Yrotation Xrotation
			JOINT LeftLeg
			{
				OFFSET 2.24963 -6.18082 0.00000
				CHANNELS 3 Zrotation Yrotation Xrotation
				JOINT LeftFoot
				{
					OFFSET 2.71775 -7.46697 0.00000
					CHANNELS 3 Zrotation Yrotation Xrotation
					JOINT LeftToeBase
					{
						OFFSET 0.18768 -0.51564 2.24737
						CHANNELS 3 Zrotation Yrotation Xrotation
						End Site
						{
							OFFSET 0.00000 -0.00000 1.15935
						}
					}
				}
			}
		}
	}
	JOINT RHipJoint
	{
		OFFSET 0 0 0
		CHANNELS 3 Zrotation Yrotation Xrotation
		JOINT RightUpLeg
		{
			OFFSET -1.58830 -1.70879 0.84566
			CHANNELS 3 Zrotation Yrotation Xrotation
			JOINT RightLeg
			{
				OFFSET -2.25006 -6.18201 0.00000
				CHANNELS 3 Zrotation Yrotation Xrotation
				JOINT RightFoot
				{
					OFFSET -2.72829 -7.49593 0.00000
					CHANNELS 3 Zrotation Yrotation Xrotation
					JOINT RightToeBase
					{
						OFFSET -0.21541 -0.59185 2.10643
						CHANNELS 3 Zrotation Yrotation Xrotation
						End Site
						{
							OFFSET -0.00000 -0.00000 1.09838
						}
					}
				}
			}
		}
	}
	JOINT LowerBack
	{
		OFFSET 0 0 0
		CHANNELS 3 Zrotation Yrotation Xrotation
		JOINT Spine
		{
			OFFSET 0.03142 2.10496 -0.11038
			CHANNELS 3 Zrotation Yrotation Xrotation
			JOINT Spine1
			{
				OFFSET -0.01863 2.10897 -0.06956
				CHANNELS 3 Zrotation Yrotation Xrotation
				JOINT Neck
				{
					OFFSET 0 0 0
					CHANNELS 3 Zrotation Yrotation Xrotation
					JOINT Neck1
					{
						OFFSET -0.02267 1.73238 0.00451
						CHANNELS 3 Zrotation Yrotation Xrotation
						JOINT Head
						{
							OFFSET -0.05808 1.54724 -0.61749
							CHANNELS 3 Zrotation Yrotation Xrotation
							End Site
							{
								OFFSET -0.01396 1.71468 -0.21082
							}
						}
					}
				}
				JOINT LeftShoulder
				{
					OFFSET 0 0 0
					CHANNELS 3 Zrotation Yrotation Xrotation
					JOINT LeftArm
					{
						OFFSET 3.44898 0.50298 0.21920
						CHANNELS 3 Zrotation Yrotation Xrotation
						JOINT LeftForeArm
						{
							OFFSET 5.41917 -0.00000 -0.00000
							CHANNELS 3 Zrotation Yrotation Xrotation
							JOINT LeftHand
							{
								OFFSET 2.44373 -0.00000 0.00000
								CHANNELS 3 Zrotation Yrotation Xrotation
								JOINT LeftFingerBase
								{
									OFFSET 0 0 0
									CHANNELS 3 Zrotation Yrotation Xrotation
									JOINT LeftHandIndex1
									{
										OFFSET 0.72750 -0.00000 0.00000
										CHANNELS 3 Zrotation Yrotation Xrotation
										End Site
										{
											OFFSET 0.58653 -0.00000 0.00000
										}
									}
								}
								JOINT LThumb
								{
									OFFSET 0 0 0
									CHANNELS 3 Zrotation Yrotation Xrotation
									End Site
									{
										OFFSET 0.59549 -0.00000 0.59549
									}
								}
							}
						}
					}
				}
				JOINT RightShoulder
				{
					OFFSET 0 0 0
					CHANNELS 3 Zrotation Yrotation Xrotation
					JOINT RightArm
					{
						OFFSET -3.23015 0.55830 0.31051
						CHANNELS 3 Zrotation Yrotation Xrotation
						JOINT RightForeArm
						{
							OFFSET -5.58976 -0.00010 0.00014
							CHANNELS 3 Zrotation Yrotation Xrotation
							JOINT RightHand
							{
								OFFSET -2.48060 -0.00000 0.00000
								CHANNELS 3 Zrotation Yrotation Xrotation
								JOINT RightFingerBase
								{
									OFFSET 0 0 0
									CHANNELS 3 Zrotation Yrotation Xrotation
									JOINT RightHandIndex1
									{
										OFFSET -0.81601 -0.00000 0.00000
										CHANNELS 3 Zrotation Yrotation Xrotation
										End Site
										{
											OFFSET -0.65789 -0.00000 0.00000
										}
									}
								}
								JOINT RThumb
								{
									OFFSET 0 0 0
									CHANNELS 3 Zrotation Yrotation Xrotation
									End Site
									{
										OFFSET -0.66793 -0.00000 0.66793
									}
								}
							}
						}
					}
				}
			}
		}
	}
}
MOTION
Frames: 17
Frame Time: 0.033333
4.50 16.54 -15.15 -3.92 7.94 28.82 0.00 0.00 0.00 -26.58 12.41 -25.40 4.24 12.47 37.43 -6.45 49.12 12.50 1.59 7.96 22.59 0.00 0.00 0.00 29.54 17.16 -39.38 -2.50 -9.84 28.47 -1.62 -20.13 -38.13 -0.91 -6.07 16.99 5.10 -0.35 -18.07 4.93 -1.18 -11.21 2.16 -0.67 -1.95 -0.55 -2.71 -14.17 -2.17 -3.22 43.39 -1.56 -1.64 18.84 -0.00 0.00 0.00 -87.21 26.78 35.75 15.69 -25.09 -3.51 -0.00 -0.00 0.66 -7.22 13.48 -1.69 -7.12 0.00 -0.00 -30.21 41.35 3.04 -0.00 0.00 0.00 75.05 -20.53 32.20 -13.23 21.62 -2.54 0.00 -0.00 -23.01 -8.76 17.99 -2.72 7.12 -0.00 -0.00 12.63 -12.11 9.95
4.51 16.54 -15.13 -4.07 7.49 28.16 0.00 0.00 0.00 -26.61 13.43 -24.68 4.16 12.37 37.06 -7.20 48.51 8.13 2.55 9.93 28.75 0.00 0.00 0.00 30.07 16.26 -38.75 -2.51 -9.86 28.53 -1.65 -19.39 -37.57 -0.89 -6.03 16.87 5.25 -0.23 -17.88 4.92 -1.04 -10.97 2.09 -0.60 -1.79 -0.40 -2.62 -14.22 -2.07 -3.18 43.58 -1.54 -1.58 18.97 -0.00 0.00 0.00 -87.36 26.70 35.93 15.72 -25.14 -3.53 -0.00 0.00 -0.04 -6.76 13.47 -1.58 -7.12 0.00 -0.00 -29.84 41.39 2.96 -0.00 0.00 0.00 76.49 -20.34 28.92 -12.99 21.27 -2.45 0.00 -0.00 -23.28 -12.81 16.82 -3.76 7.12 -0.00 -0.00 9.97 -12.95 7.60
4.50 16.54 -15.13 -3.92 7.69 28.13 0.00 0.00 0.00 -26.63 13.23 -24.59 4.18 12.39 37.13 -8.57 49.08 2.64 3.41 11.33 33.41 0.00 0.00 0.00 29.73 16.81 -38.61 -2.53 -9.89 28.61 -1.61 -19.99 -37.96 -0.90 -6.04 16.89 5.04 -0.43 -17.32 5.06 -1.19 -11.48 2.35 -0.68 -2.62 -0.32 -2.54 -13.59 -2.23 -3.02 43.64 -1.59 -1.53 18.83 -0.00 0.00 0.00 -87.83 27.64 35.76 15.90 -25.38 -3.60 -0.00 0.00 -0.50 -6.32 13.92 -1.53 -7.12 0.00 -0.00 -29.67 41.83 2.58 -0.00 0.00 0.00 77.36 -20.98 26.13 -12.55 20.63 -2.29 0.00 -0.00 -21.65 -14.60 16.69 -4.28 7.12 -0.00 -0.00 8.79 -12.92 6.68
4.50 16.54 -15.13 -3.94 7.67 28.17 0.00 0.00 0.00 -26.65 13.22 -24.73 4.21 12.43 37.27 -8.42 48.99 3.23 3.27 11.12 32.70 0.00 0.00 0.00 29.85 16.59 -38.70 -2.52 -9.87 28.57 -1.60 -19.85 -37.79 -0.83 -5.81 16.24 5.04 -0.46 -17.47 5.12 -1.24 -11.54 2.40 -0.70 -2.62 -0.57 -2.66 -12.98 -2.08 -3.21 43.37 -1.48 -1.64 18.50 -0.00 0.00 0.00 -88.11 27.84 35.46 16.10 -25.65 -3.69 -0.00 0.00 -0.43 -5.61 13.66 -1.33 -7.12 0.00 -0.00 -28.99 41.67 2.63 -0.00 0.00 0.00 78.64 -20.49 21.24 -11.37 18.85 -1.89 0.00 -0.00 -20.10 -14.18 19.31 -4.78 7.12 -0.00 -0.00 9.12 -10.30 7.44
4.50 16.54 -15.13 -4.18 7.72 28.11 0.00 0.00 0.00 -26.38 13.19 -24.74 4.22 12.45 37.33 -9.05 49.16 0.26 3.74 11.81 35.06 0.00 0.00 0.00 30.28 16.22 -38.74 -2.51 -9.86 28.52 -1.63 -19.38 -37.47 -0.93 -6.13 17.16 5.43 -0.38 -17.94 5.11 -1.25 -11.22 2.16 -0.72 -2.03 -0.60 -2.70 -13.21 -1.75 -3.40 43.18 -1.35 -1.68 18.45 0.00 -0.00 0.00 -88.19 27.10 35.10 16.08 -25.63 -3.68 -0.00 -0.00 0.06 -6.20 15.14 -1.63 -7.12 0.00 -0.00 -30.11 42.91 1.72 0.00 -0.00 0.00 79.85 -19.90 18.20 -10.80 17.97 -1.71 0.00 -0.00 -19.23 -15.21 18.94 -5.04 7.12 -0.00 -0.00 8.44 -10.57 6.82
4.50 16.54 -15.13 -4.34 7.90 28.00 0.00 0.00 0.00 -26.09 13.05 -24.67 4.23 12.46 37.37 -4.54 48.35 19.05 0.66 5.18 14.43 0.00 0.00 0.00 30.66 15.81 -38.72 -2.49 -9.82 28.38 -1.46 -19.70 -36.89 -0.74 -5.49 15.31 5.72 -0.46 -18.05 5.20 -1.42 -11.12 2.07 -0.81 -1.88 -0.41 -2.63 -13.71 -2.00 -3.25 43.52 -1.50 -1.61 18.79 0.00 -0.00 0.00 -88.48 26.87 34.83 15.98 -25.49 -3.64 -0.00 -0.00 0.49 -5.88 15.42 -1.57 -7.12 0.00 -0.00 -29.97 43.19 1.49 0.00 -0.00 0.00 80.70 -19.62 15.20 -10.19 17.04 -1.53 0.00 -0.00 -17.54 -15.42 18.82 -5.08 7.12 -0.00 -0.00 8.30 -10.67 6.69
4.49 16.54 -15.13 -4.30 7.73 28.03 0.00 0.00 0.00 -26.21 13.07 -24.74 4.22 12.45 37.33 -2.66 47.14 24.73 0.20 2.91 8.02 0.00 0.00 0.00 30.53 16.04 -38.59 -2.47 -9.79 28.30 -1.48 -19.66 -36.98 -0.86 -5.92 16.55 5.74 -0.42 -18.26 5.08 -1.38 -11.12 1.93 -0.80 -1.77 -0.48 -2.68 -13.17 -1.84 -3.37 43.35 -1.42 -1.66 18.54 0.00 -0.00 0.00 -88.40 26.86 34.90 16.06 -25.60 -3.67 -0.00 -0.00 0.40 -5.47 16.01 -1.51 -7.12 0.00 -0.00 -29.90 43.75 1.02 0.00 -0.00 0.00 81.86 -19.10 10.10 -9.03 15.20 -1.21 0.00 -0.00 -13.75 -15.52 19.87 -5.39 7.12 -0.00 -0.00 8.27 -9.59 6.85
4.49 16.55 -15.14 -4.49 7.85 28.18 0.00 0.00 0.00 -25.96 13.15 -25.23 4.27 12.51 37.54 -1.56 45.64 27.30 0.05 1.48 4.08 0.00 0.00 0.00 30.77 16.07 -38.72 -2.44 -9.74 28.13 -1.40 -19.90 -36.79 -0.80 -5.71 15.96 6.01 -0.36 -18.48 5.07 -1.36 -11.18 1.77 -0.80 -1.74 -0.45 -2.79 -12.96 -1.87 -3.55 43.25 -1.46 -1.73 18.41 0.00 0.00 0.00 -88.31 26.80 35.65 15.83 -25.29 -3.57 -0.00 0.00 -1.24 -3.27 15.25 -0.86 -7.12 0.00 -0.00 -27.74 43.33 1.25 0.00 0.00 0.00 82.75 -19.33 8.07 -8.74 14.75 -1.13 0.00 -0.00 -12.98 -16.34 20.23 -5.79 7.12 -0.00 -0.00 7.76 -9.13 6.49
4.49 16.54 -15.13 -4.58 7.55 28.18 0.00 0.00 0.00 -25.99 13.43 -25.28 4.26 12.50 37.53 -1.90 46.29 26.65 0.13 2.31 6.35 0.00 0.00 0.00 31.05 15.60 -38.72 -2.42 -9.70 28.01 -1.40 -19.30 -36.23 -0.72 -5.41 15.07 6.05 -0.34 -18.67 5.14 -1.36 -11.15 1.82 -0.80 -1.61 -0.50 -2.70 -12.85 -1.83 -3.41 43.24 -1.41 -1.68 18.38 0.00 -0.00 0.00 -88.61 26.86 35.34 15.76 -25.19 -3.54 -0.00 0.00 -1.95 -2.56 15.65 -0.69 -7.12 0.00 -0.00 -27.32 43.76 0.91 0.00 -0.00 0.00 83.30 -18.94 4.92 -8.14 13.77 -0.98 0.00 -0.00 -11.43 -16.96 20.22 -6.02 7.12 -0.00 -0.00 7.36 -9.06 6.16
4.49 16.53 -15.15 -5.03 6.51 28.34 0.00 0.00 0.00 -26.17 13.96 -25.71 4.24 12.48 37.44 -1.21 45.41 28.36 0.05 1.47 4.05 0.00 0.00 0.00 31.64 15.18 -38.93 -2.39 -9.64 27.81 -1.26 -18.55 -34.67 -0.53 -4.67 12.96 6.36 0.05 -18.80 5.15 -0.92 -11.07 1.73 -0.59 -1.46 -0.58 -2.64 -12.77 -1.77 -3.31 43.05 -1.33 -1.65 18.25 -0.00 0.00 0.00 -88.77 26.67 34.97 15.61 -24.99 -3.48 -0.00 0.00 -1.96 -2.49 16.06 -0.69 -7.12 0.00 -0.00 -27.43 44.14 0.63 -0.00 0.00 0.00 83.75 -18.31 1.72 -7.38 12.55 -0.81 0.00 -0.00 -9.59 -17.59 20.92 -6.46 7.12 -0.00 -0.00 7.00 -8.26 5.97
4.48 16.55 -15.16 -4.94 6.47 28.13 0.00 0.00 0.00 -26.06 13.81 -25.19 4.17 12.38 37.10 1.50 40.61 34.73 0.11 -2.12 -5.82 0.00 0.00 0.00 31.22 15.85 -38.89 -2.44 -9.73 28.10 -1.56 -18.59 -36.36 -0.92 -6.10 17.07 6.23 -0.08 -18.86 5.12 -1.11 -10.81 1.73 -0.67 -1.14 -0.46 -2.59 -12.84 -1.76 -3.27 42.94 -1.34 -1.62 18.20 -0.00 0.00 0.00 -88.71 26.52 35.01 15.66 -25.05 -3.50 -0.00 0.00 -2.37 -1.72 15.88 -0.47 -7.12 0.00 -0.00 -26.70 44.06 0.67 -0.00 0.00 0.00 84.22 -17.73 0.17 -7.11 12.09 -0.75 0.00 -0.00 -8.59 -18.43 20.40 -6.63 7.12 -0.00 -0.00 6.43 -8.69 5.42
4.48 16.53 -15.18 -4.78 6.39 28.17 0.00 0.00 0.00 -26.15 13.62 -25.17 4.17 12.38 37.11 1.49 40.45 34.59 0.02 -0.87 -2.39 0.00 0.00 0.00 31.07 15.96 -38.71 -2.44 -9.74 28.13 -1.96 -17.27 -37.26 -1.16 -6.85 19.26 6.05 -0.12 -18.98 5.08 -1.16 -10.71 1.77 -0.68 -0.96 -0.49 -2.61 -12.87 -1.81 -3.28 42.90 -1.36 -1.63 18.18 -0.00 0.00 0.00 -88.70 26.33 35.10 15.55 -24.91 -3.45 -0.00 0.00 -2.40 -1.76 16.08 -0.49 -7.12 0.00 -0.00 -26.82 44.24 0.55 -0.00 0.00 0.00 84.54 -17.27 -2.62 -6.73 11.47 -0.68 0.00 -0.00 -6.63 -18.62 19.87 -6.53 7.12 -0.00 -0.00 6.28 -9.21 5.22
4.48 16.54 -15.18 -4.92 6.42 28.00 0.00 0.00 0.00 -25.95 13.72 -25.13 4.20 12.42 37.24 2.13 38.52 35.84 0.07 -1.70 -4.68 0.00 0.00 0.00 31.21 16.06 -38.34 -2.41 -9.67 27.91 -1.93 -17.49 -37.30 -1.13 -6.74 18.95 6.26 -0.22 -18.76 5.16 -1.31 -10.66 1.72 -0.77 -1.03 -0.63 -2.59 -12.64 -1.88 -3.17 42.77 -1.34 -1.63 18.04 0.00 -0.00 0.00 -88.77 26.51 34.99 15.69 -25.09 -3.51 -0.00 0.00 -2.50 -1.73 16.19 -0.48 -7.12 0.00 -0.00 -26.85 44.34 0.47 0.00 -0.00 0.00 84.48 -17.16 -4.40 -6.37 10.88 -0.61 0.00 -0.00 -5.40 -17.79 20.59 -6.44 7.12 -0.00 -0.00 6.85 -8.57 5.80
4.48 16.56 -15.19 -5.02 6.21 28.19 0.00 0.00 0.00 -26.06 13.73 -25.37 4.17 12.38 37.10 1.85 39.26 35.21 0.05 -1.38 -3.80 0.00 0.00 0.00 31.26 15.86 -39.10 -2.44 -9.72 28.08 -1.26 -19.22 -35.38 -0.71 -5.39 15.03 6.43 -0.12 -19.07 5.08 -1.24 -10.51 1.54 -0.74 -0.72 -0.66 -2.61 -12.54 -1.78 -3.23 42.52 -1.29 -1.65 17.87 0.00 -0.00 0.00 -88.59 26.29 34.96 15.72 -25.15 -3.53 -0.00 0.00 -2.45 -1.17 15.88 -0.32 -7.12 0.00 -0.00 -26.24 44.13 0.61 0.00 -0.00 0.00 84.61 -16.88 -4.09 -6.53 11.14 -0.64 0.00 -0.00 -6.13 -15.87 19.57 -5.44 7.12 -0.00 -0.00 8.04 -9.85 6.61
4.48 16.54 -15.21 -5.10 6.13 28.21 0.00 0.00 0.00 -26.02 13.72 -25.61 4.22 12.44 37.32 1.88 39.16 35.28 0.06 -1.62 -4.45 0.00 0.00 0.00 31.46 15.76 -38.94 -2.41 -9.67 27.93 -1.80 -17.41 -36.54 -1.19 -6.91 19.44 6.45 -0.16 -18.81 5.10 -1.26 -10.66 1.55 -0.76 -1.01 -0.56 -2.54 -12.40 -1.79 -3.16 42.70 -1.31 -1.60 17.94 -0.00 0.00 0.00 -88.68 26.52 34.23 15.62 -25.00 -3.48 -0.00 0.00 -1.73 -1.30 16.03 -0.36 -7.12 0.00 -0.00 -26.41 44.25 0.53 -0.00 0.00 0.00 84.34 -17.14 -3.13 -6.64 11.33 -0.66 0.00 -0.00 -6.90 -12.39 16.83 -3.64 7.12 -0.00 -0.00 10.26 -12.97 7.82
4.48 16.55 -15.22 -5.08 6.11 28.16 0.00 0.00 0.00 -26.04 13.73 -25.63 4.23 12.46 37.37 1.51 40.57 34.74 0.06 -1.60 -4.39 0.00 0.00 0.00 31.36 15.91 -39.09 -2.43 -9.72 28.06 -1.15 -19.36 -34.90 -0.60 -4.96 13.80 6.39 -0.15 -18.87 5.05 -1.25 -10.60 1.53 -0.75 -0.92 -0.67 -2.60 -12.18 -1.67 -3.27 42.54 -1.24 -1.65 17.79 0.00 0.00 0.00 -88.50 26.49 34.37 15.51 -24.85 -3.44 -0.00 0.00 -1.86 -0.98 15.23 -0.26 -7.12 0.00 -0.00 -25.81 43.56 0.99 0.00 0.00 0.00 84.09 -17.04 -3.98 -6.54 11.17 -0.64 0.00 -0.00 -5.69 -7.28 15.56 -1.96 7.12 -0.00 -0.00 13.66 -14.60 10.07
4.47 16.55 -15.22 -4.86 5.69 28.08 0.00 0.00 0.00 -26.48 14.06 -25.52 4.18 12.39 37.14 -1.00 44.61 28.44 0.22 3.02 8.34 0.00 0.00 0.00 30.60 16.98 -38.89 -2.49 -9.83 28.41 -1.30 -19.45 -35.83 -0.80 -5.72 15.99 5.94 -0.21 -18.80 5.02 -1.26 -10.43 1.75 -0.73 -0.75 -0.70 -2.55 -12.51 -1.65 -3.19 42.54 -1.22 -1.62 17.88 -0.00 0.00 0.00 -88.62 26.32 34.03 15.62 -25.00 -3.48 -0.00 0.00 -2.02 -1.00 15.01 -0.26 -7.12 0.00 -0.00 -25.74 43.36 1.12 -0.00 0.00 0.00 83.64 -17.12 -0.61 -6.67 11.38 -0.67 0.00 -0.00 -5.79 -4.13 14.14 -1.01 7.12 -0.00 -0.00 15.83 -16.14 11.25
